HIERARCHY
ROOT Hips
{
	OFFSET 0.00000 0.00000 0.00000
	CHANNELS 6 Xposition Yposition Zposition Yrotation Zrotation Xrotation 
	JOINT Lumbar
	{
		OFFSET 0 0 0
		CHANNELS 3 Zrotation Xrotation Yrotation
		JOINT Neck
		{
			OFFSET 0.00 0.2701 0.00
			CHANNELS 3 Zrotation Xrotation Yrotation
			End Site
			{
				OFFSET 0.00 0.1379 0.00
			}
		}
		JOINT RightShoulder
		{
			OFFSET 0.0119 0.2289 0.1181
			CHANNELS 3 Zrotation Xrotation Yrotation
			JOINT RightElbow
			{
				OFFSET 0.00 -0.1475 0.00
				CHANNELS 2 Zrotation Yrotation
				JOINT RightWrist
				{
					OFFSET 0.00 -0.1605 0.00
					CHANNELS 2 Zrotation Xrotation
					End Site
					{
						OFFSET 0.0040 -0.1068 0.0006
					}
				}
			}
		}
		JOINT LeftShoulder
		{
			OFFSET 0.0119 0.2289 -0.1181
			CHANNELS 3 Zrotation Xrotation Yrotation
			JOINT LeftElbow
			{
				OFFSET 0.00 -0.1475 0.00
				CHANNELS 2 Zrotation Yrotation
				JOINT LeftWrist
				{
					OFFSET 0.00 -0.1605 0.00
					CHANNELS 2 Zrotation Xrotation
					End Site
					{
						OFFSET 0.0040 -0.1068 -0.0006
					}
				}
			}
		}
	}
	JOINT RightHip
	{
		OFFSET 0.0316 -0.0424 0.0458
		CHANNELS 3 Zrotation Xrotation Yrotation
		JOINT RightKnee
		{
			OFFSET 0.00 -0.2438 0.00
			CHANNELS 1 Zrotation
			JOINT RightAnkle
			{
				OFFSET 0.00 -0.2449 0.00
				CHANNELS 3 Zrotation Xrotation Yrotation
				End Site
				{
					OFFSET 0.1237 -0.0542 0.0051
				}
			}
		}
	}
	JOINT LeftHip
	{
		OFFSET 0.0316 -0.0424 -0.0458
		CHANNELS 3 Zrotation Xrotation Yrotation
		JOINT LeftKnee
		{
			OFFSET 0.00 -0.2438 0.00
			CHANNELS 1 Zrotation
			JOINT LeftAnkle
			{
				OFFSET 0.00 -0.2449 0.00
				CHANNELS 3 Zrotation Xrotation Yrotation
				End Site
				{
					OFFSET 0.1237 -0.0542 -0.0051
				}
			}
		}
	}
}
MOTION
Frames: 25
Frame Time: 0.02
-0.09744 0.00192 0.02331 -185.21821 -39.30163 -10.95036 42.84029 -3.7117 12.38965 -5.29017 6.24117 -0.82993 136.93533 -64.61468 64.16334 5.57662 80.27078 10.62833 -1.94186 -7.76261 27.3661 5.81641 44.55729 -97.86657 4.88207 -3.56055 43.40387 -2.23067 -4.9497 -25.57517 -7.57941 -3.67419 -2.59912 51.47111 13.31574 -5.24778 -32.62759 -7.00759 3.0454 2.22912
-0.09822 0.00187 0.0251 -185.90348 -39.05336 -11.45164 42.67735 -3.9033 12.45003 -5.47894 6.34568 -0.82995 137.16961 -64.83631 64.1641 5.53343 81.29556 10.68224 -1.97781 -8.67186 27.88317 6.20872 44.01165 -98.18534 5.09365 -3.51836 43.42946 -2.24551 -5.31432 -25.94477 -7.58615 -3.53084 -2.52064 51.35224 13.4298 -5.5465 -33.13133 -7.00622 3.13856 2.27914
-0.09893 0.00171 0.02689 -186.55662 -38.79643 -11.87871 42.48816 -4.0919 12.42482 -5.63705 6.39773 -0.82998 137.10112 -64.94649 64.1644 5.47897 82.64162 10.83809 -2.13598 -9.52065 28.38652 6.42618 43.11863 -99.13042 5.45255 -3.56521 43.42121 -2.36249 -5.91516 -26.26379 -7.57964 -3.35668 -2.42546 51.25084 13.47131 -5.89235 -33.68112 -7.00722 3.2342 2.33178
-0.09968 0.0016 0.02869 -187.21581 -38.54706 -12.332 42.31488 -4.28018 12.43721 -5.80972 6.47353 -0.83001 137.16082 -65.10379 64.1644 5.43484 83.79823 10.94163 -2.23343 -10.37851 28.88783 6.70214 42.36722 -99.77123 5.74478 -3.56693 43.42567 -2.43087 -6.38183 -26.59682 -7.57987 -3.20136 -2.34046 51.14223 13.55427 -6.16782 -34.20301 -7.00552 3.32223 2.37961
-0.10042 0.0015 0.03046 -187.91548 -38.28142 -12.81902 42.12354 -4.47553 12.45279 -5.98024 6.54994 -0.83004 137.23693 -65.28122 64.16481 5.38139 85.13129 11.07101 -2.35714 -11.32035 29.42785 7.06458 41.67592 -100.49214 6.03829 -3.5867 43.4439 -2.50644 -6.958 -26.9716 -7.57706 -3.02555 -2.24441 51.03041 13.60667 -6.64049 -34.75561 -7.01056 3.43687 2.44224
-0.10115 0.00134 0.03229 -188.52142 -38.04825 -13.21733 41.96446 -4.65497 12.44257 -6.14758 6.61255 -0.83006 137.21523 -65.38886 64.1649 5.34001 86.1769 11.17016 -2.45254 -12.07077 29.88128 7.2082 40.78298 -101.18615 6.36056 -3.58874 43.42457 -2.59209 -7.36398 -27.24537 -7.57747 -2.88508 -2.16744 50.92946 13.70183 -6.72235 -35.25405 -7.00237 3.4976 2.4752
-0.10186 0.00104 0.03429 -188.87733 -37.90378 -13.38932 41.896 -4.79731 12.37812 -6.31573 6.64961 -0.83007 137.00612 -65.32338 64.1646 5.33227 86.3362 11.16566 -2.45239 -12.30372 30.11438 6.76483 39.38492 -101.77856 6.75916 -3.54461 43.30822 -2.68051 -7.23837 -27.25928 -7.58963 -2.85022 -2.14723 50.85459 13.95315 -5.6506 -35.59962 -6.95475 3.40103 2.42119
-0.10256 0.00068 0.03636 -189.13903 -37.79303 -13.47415 41.86188 -4.92269 12.29158 -6.48122 6.67461 -0.83007 136.71109 -65.1921 64.1642 5.33569 86.19838 11.12622 -2.41719 -12.34586 30.25759 6.11201 37.80366 -102.30353 7.17589 -3.47625 43.15519 -2.77596 -6.93493 -27.1716 -7.60553 -2.85188 -2.14678 50.79009 14.24569 -4.19627 -35.88748 -6.89416 3.25158 2.33804
-0.10326 0.00036 0.03839 -189.44294 -37.66892 -13.59836 41.81541 -5.05195 12.21808 -6.64664 6.70526 -0.83007 136.45291 -65.09517 64.16388 5.33377 86.20676 11.09978 -2.3888 -12.47682 30.43153 5.57177 36.32799 -102.77537 7.56238 -3.40248 43.01958 -2.86843 -6.7154 -27.1255 -7.61995 -2.83657 -2.13731 50.72058 14.50561 -2.95878 -36.19654 -6.84102 3.13149 2.27111
-0.10398 0 0.04044 -189.74925 -37.53599 -13.72128 41.75447 -5.19731 12.12922 -6.81675 6.73333 -0.83007 136.19205 -64.97576 64.16334 5.33281 86.17974 11.08948 -2.40139 -12.59687 30.64782 4.95198 34.74284 -103.61128 8.0455 -3.39811 42.87956 -2.96311 -6.48935 -27.0969 -7.63303 -2.82189 -2.1275 50.65267 14.82186 -1.54111 -36.52868 -6.78142 2.98905 2.19174
-0.10466 -0.00028 0.04247 -190.0275 -37.4298 -13.82677 41.73192 -5.3051 12.06782 -6.9764 6.76463 -0.83007 135.92157 -64.88888 64.16325 5.33259 86.15088 11.03538 -2.32101 -12.69512 30.75468 4.45047 33.3505 -103.67886 8.33147 -3.24604 42.74058 -3.05404 -6.23367 -27.0086 -7.64993 -2.81482 -2.1232 50.584 15.03129 -0.4077 -36.79813 -6.73216 2.8805 2.1313
-0.10525 -0.00036 0.04442 -190.26038 -37.38722 -13.90865 41.80939 -5.31371 12.0917 -7.11168 6.80758 -0.83008 135.63798 -64.90887 64.16451 5.33151 86.1957 10.87354 -1.97174 -12.77897 30.58197 4.32673 32.50491 -101.51677 8.0531 -2.65924 42.61235 -3.12816 -5.9207 -26.77832 -7.67676 -2.82138 -2.13035 50.50786 14.93788 -0.14868 -36.91104 -6.71458 2.87907 2.13048
-0.10581 -0.00037 0.04634 -190.46668 -37.37086 -13.9757 41.92404 -5.28505 12.14365 -7.2359 6.85445 -0.83008 135.35062 -64.96418 64.16621 5.33085 86.24622 10.66766 -1.53332 -12.84757 30.30239 4.32981 31.86689 -98.60355 7.57791 -1.93021 42.48691 -3.19861 -5.58639 -26.49214 -7.70731 -2.83424 -2.14228 50.43116 14.73562 -0.18909 -36.96217 -6.70784 2.91341 2.14963
-0.10638 -0.00041 0.04826 -190.67944 -37.34373 -14.04787 42.02022 -5.27318 12.18057 -7.36284 6.89994 -0.83008 135.07167 -65.00333 64.16766 5.33013 86.28856 10.47813 -1.14872 -12.92442 30.07117 4.27622 31.15589 -96.11322 7.20223 -1.28757 42.36094 -3.27336 -5.27319 -26.23301 -7.73605 -2.84331 -2.15138 50.35635 14.58192 -0.09543 -37.03978 -6.69616 2.93106 2.15952
-0.10697 -0.00045 0.05022 -190.91282 -37.31265 -14.12402 42.12413 -5.26127 12.22637 -7.49961 6.94339 -0.83008 134.76157 -65.04084 64.16933 5.32926 86.34427 10.30206 -0.70695 -12.99037 29.83691 4.21254 30.34913 -93.27822 6.78461 -0.55285 42.2301 -3.3374 -4.90592 -25.9631 -7.76546 -2.85743 -2.16383 50.27453 14.43291 0.01837 -37.12216 -6.68413 2.94889 2.16934
-0.1075 -0.00048 0.05209 -191.09791 -37.29594 -14.18921 42.22042 -5.24089 12.26049 -7.61307 6.99206 -0.83008 134.51623 -65.09069 64.17065 5.32864 86.37741 10.08903 -0.36337 -13.07616 29.58577 4.20098 29.7923 -90.98164 6.40759 0.02428 42.11111 -3.42263 -4.64829 -25.70404 -7.79426 -2.86221 -2.17029 50.20762 14.24843 0.01624 -37.18069 -6.67555 2.97528 2.18425
-0.10786 -0.00049 0.05373 -191.15857 -37.30927 -14.23073 42.28525 -5.20565 12.25707 -7.66676 7.0553 -0.83008 134.45493 -65.16926 64.17087 5.32852 86.34685 9.7758 -0.31414 -13.23598 29.30594 4.31885 29.88733 -90.37217 6.18856 0.1251 42.0195 -3.56849 -4.70072 -25.48625 -7.82092 -2.83837 -2.15817 50.17694 13.9865 -0.25281 -37.18841 -6.67408 3.01904 2.20992
-0.10816 -0.00049 0.05527 -191.17145 -37.33654 -14.26158 42.34106 -5.16337 12.24074 -7.697 7.12343 -0.83008 134.4587 -65.25876 64.17073 5.3286 86.2948 9.42904 -0.36678 -13.41419 29.01487 4.48289 30.22533 -90.32804 6.01759 0.06342 41.94074 -3.73555 -4.86464 -25.28234 -7.84676 -2.80501 -2.13993 50.16205 13.69353 -0.62647 -37.17443 -6.67573 3.06999 2.23988
-0.10848 -0.0005 0.05685 -191.2052 -37.35946 -14.29593 42.40185 -5.12479 12.22942 -7.73684 7.18876 -0.83008 134.43017 -65.34142 64.17077 5.32858 86.25408 9.10329 -0.37192 -13.57498 28.73465 4.61591 30.44493 -90.01403 5.82592 0.08031 41.85939 -3.89202 -4.97712 -25.07405 -7.87267 -2.77668 -2.12496 50.14337 13.41865 -0.94089 -37.17089 -6.67587 3.11629 2.26699
-0.10884 -0.0005 0.05847 -191.24193 -37.37522 -14.33566 42.46078 -5.08278 12.22274 -7.78097 7.25701 -0.83009 134.41253 -65.43311 64.17078 5.32858 86.20689 8.75038 -0.3787 -13.77405 28.42602 4.79519 30.70547 -89.72697 5.62227 0.08259 41.76455 -4.05232 -5.09227 -24.85528 -7.89995 -2.74557 -2.10808 50.11092 13.12336 -1.31451 -37.16326 -6.67678 3.16964 2.29855
-0.1091 -0.00052 0.05997 -191.26097 -37.4085 -14.36152 42.52025 -5.04671 12.2029 -7.81045 7.31988 -0.83009 134.38826 -65.5082 64.17075 5.3286 86.16789 8.44818 -0.4078 -13.89715 28.17579 4.88794 30.9356 -89.52974 5.45792 0.07444 41.70065 -4.20985 -5.2283 -24.66279 -7.92416 -2.71795 -2.09367 50.11022 12.86441 -1.58628 -37.15913 -6.67667 3.20958 2.32164
-0.10917 -0.00056 0.06116 -191.24715 -37.48956 -14.35459 42.58918 -5.02928 12.15032 -7.80767 7.37019 -0.83009 134.32534 -65.53434 64.17078 5.32859 86.15839 8.28127 -0.47086 -13.81354 28.08595 4.72611 31.0233 -89.43343 5.38849 0.07908 41.72072 -4.35344 -5.39754 -24.53699 -7.94 -2.70187 -2.08749 50.19906 12.71563 -1.54618 -37.1763 -6.67302 3.21035 2.31998
-0.10914 -0.00061 0.06223 -191.21643 -37.58706 -14.33352 42.65767 -5.01814 12.08469 -7.79058 7.41427 -0.83009 134.25431 -65.54331 64.17077 5.32861 86.15759 8.16907 -0.55373 -13.65168 28.05637 4.47591 31.07102 -89.41608 5.35864 0.07705 41.77131 -4.4937 -5.58325 -24.43831 -7.9528 -2.68975 -2.08404 50.3181 12.60455 -1.39938 -37.19685 -6.66817 3.19728 2.30962
-0.10915 -0.00066 0.06335 -191.19082 -37.67514 -14.31723 42.72247 -5.00401 12.02462 -7.7784 7.45886 -0.83009 134.19003 -65.56028 64.17072 5.32862 86.15169 8.04065 -0.62989 -13.52061 28.00233 4.26823 31.13508 -89.36883 5.31237 0.07704 41.80662 -4.63629 -5.76004 -24.32862 -7.96704 -2.67599 -2.07931 50.41973 12.47537 -1.30339 -37.21211 -6.66379 3.19064 2.30339
-0.10919 -0.00071 0.06449 -191.17464 -37.77221 -14.30789 42.80357 -4.99029 11.96576 -7.77191 7.51333 -0.83009 134.11532 -65.57688 64.17087 5.32855 86.14974 7.87497 -0.70023 -13.40974 27.93606 4.05178 31.21455 -89.30478 5.25949 0.07864 41.84772 -4.77633 -5.94791 -24.21217 -7.98096 -2.66093 -2.07436 50.538 12.34939 -1.20178 -37.24263 -6.65986 3.18371 2.29661
